<?xml version="1.0" encoding="UTF-8"?>
<svg xmlns="http://www.w3.org/2000/svg">
  <defs>
    <symbol id="play" viewBox="0 0 24 24">
      <path d="M19.376 12.4161L8.77735 19.4818C8.54759 19.635 8.23715 19.5729 8.08397 19.3432C8.02922 19.261 8 19.1645 8 19.0658V4.93433C8 4.65818 8.22386 4.43433 8.5 4.43433C8.59871 4.43433 8.69522 4.46355 8.77735 4.5183L19.376 11.584C19.6057 11.7372 19.6678 12.0477 19.5146 12.2774C19.478 12.3323 19.4309 12.3795 19.376 12.4161Z"></path>
    </symbol>
    <symbol id="pause" viewBox="0 0 24 24">
      <path d="M6 5H8V19H6V5ZM16 5H18V19H16V5Z"></path>
    </symbol>
    <symbol id="next" viewBox="0 0 24 24">
      <path d="M17 6 17 18H15L15 6 17 6ZM13 12 7 18V6L13 12Z"></path>
    </symbol>
    <symbol id="queue" viewBox="0 0 24 24">
      <path d="M17 3.99998V2.0675C17 1.79136 17.2239 1.5675 17.5 1.5675C17.617 1.5675 17.7302 1.60851 17.8201 1.68339L21.9391 5.11587C22.1512 5.29266 22.1799 5.60794 22.0031 5.82008C21.9081 5.93407 21.7674 5.99998 21.619 5.99998H2V3.99998H17ZM2 18H22V20H2V18ZM2 11H22V13H2V11Z"></path>
    </symbol>
    <symbol id="home" viewBox="0 0 24 24">
      <path d="M21 20C21 20.5523 20.5523 21 20 21H4C3.44772 21 3 20.5523 3 20V9.48907C3 9.18048 3.14247 8.88917 3.38606 8.69972L11.3861 2.47749C11.7472 2.19663 12.2528 2.19663 12.6139 2.47749L20.6139 8.69972C20.8575 8.88917 21 9.18048 21 9.48907V20ZM19 19V9.97815L12 4.53371L5 9.97815V19H19ZM7 15H17V17H7V15Z"></path>
    </symbol>
    <symbol id="stars" viewBox="0 0 24 24">
      <path d="M10.6144 17.7956 11.492 15.7854C12.2731 13.9966 13.6789 12.5726 15.4325 11.7942L17.8482 10.7219C18.6162 10.381 18.6162 9.26368 17.8482 8.92277L15.5079 7.88394C13.7092 7.08552 12.2782 5.60881 11.5105 3.75894L10.6215 1.61673C10.2916.821765 9.19319.821767 8.8633 1.61673L7.97427 3.75892C7.20657 5.60881 5.77553 7.08552 3.97685 7.88394L1.63658 8.92277C.868537 9.26368.868536 10.381 1.63658 10.7219L4.0523 11.7942C5.80589 12.5726 7.21171 13.9966 7.99275 15.7854L8.8704 17.7956C9.20776 18.5682 10.277 18.5682 10.6144 17.7956ZM19.4014 22.6899 19.6482 22.1242C20.0882 21.1156 20.8807 20.3125 21.8695 19.8732L22.6299 19.5353C23.0412 19.3526 23.0412 18.7549 22.6299 18.5722L21.9121 18.2532C20.8978 17.8026 20.0911 16.9698 19.6586 15.9269L19.4052 15.3156C19.2285 14.8896 18.6395 14.8896 18.4628 15.3156L18.2094 15.9269C17.777 16.9698 16.9703 17.8026 15.956 18.2532L15.2381 18.5722C14.8269 18.7549 14.8269 19.3526 15.2381 19.5353L15.9985 19.8732C16.9874 20.3125 17.7798 21.1156 18.2198 22.1242L18.4667 22.6899C18.6473 23.104 19.2207 23.104 19.4014 22.6899Z"></path>
    </symbol>
    <symbol id="playlist" viewBox="0 0 24 24">
      <path d="M2 18H12V20H2V18ZM2 11H16V13H2V11ZM2 4H22V6H2V4ZM19 15.1707V9H24V11H21V18C21 19.6569 19.6569 21 18 21C16.3431 21 15 19.6569 15 18C15 16.3431 16.3431 15 18 15C18.3506 15 18.6872 15.0602 19 15.1707Z"></path>
    </symbol>
    <symbol id="login" viewBox="0 0 24 24">
      <path d="M4 15H6V20H18V4H6V9H4V3C4 2.44772 4.44772 2 5 2H19C19.5523 2 20 2.44772 20 3V21C20 21.5523 19.5523 22 19 22H5C4.44772 22 4 21.5523 4 21V15ZM10 11V8L15 12L10 16V13H2V11H10Z"></path>
    </symbol>
    <svg id="logout" viewBox="0 0 24 24">
      <path d="M4 18H6V20H18V4H6V6H4V3C4 2.44772 4.44772 2 5 2H19C19.5523 2 20 2.44772 20 3V21C20 21.5523 19.5523 22 19 22H5C4.44772 22 4 21.5523 4 21V18ZM6 11H13V13H6V16L1 12L6 8V11Z"></path>
    </svg>
  </defs>
</svg>
